# xmcd
#
# Track frame offsets:
#	150
#	17212
#	36647
#	52855
#	71832
#	86300
#	100192
#	122355
#	141240
#	152135
#	167652
#	178820
#	193762
#	214865
#
# Disc length: 3148 seconds
#
# Revision: 1
# Processed by: cddbd v1.4PL0 Copyright (c) Steve Scherf et al.
# Submitted via: EasyCDDAExtractor 5.1.0
#
DISCID=c40c4a0e
DTITLE=Sammy O'Banion and Mardi Gras - It's About Time
DYEAR=1996
DGENRE=Blues
TTITLE0=Love Running Through My Fingers
TTITLE1=Never Get Enough Of Your Love
TTITLE2=Love I Lost, The
TTITLE3=I'll Be Around
TTITLE4=I'm Doing Fine
TTITLE5=Hold Me Thrill Me Kiss Me
TTITLE6=Moving On Up
TTITLE7=Fixin To Stay
TTITLE8=Very Strong On You
TTITLE9=Carolina
TTITLE10=Don't You Think Its Time
TTITLE11=Don't Leave Me Behind
TTITLE12=Jerry Butler Medley
TTITLE13=New Orleans Ladies
EXTD=
EXTT0=
EXTT1=
EXTT2=
EXTT3=
EXTT4=
EXTT5=
EXTT6=
EXTT7=
EXTT8=
EXTT9=
EXTT10=
EXTT11=
EXTT12=
EXTT13=
PLAYORDER=
